STARTFONT 2.1
FONT aseticons-20
SIZE 20 72 72
FONTBOUNDINGBOX 20 23 7 -13
STARTPROPERTIES 3
FONT_ASCENT 10
FONT_DESCENT 13
DEFAULT_CHAR 0
ENDPROPERTIES
CHARS 211
STARTCHAR <unknown>
ENCODING 221
SWIDTH 42 0
DWIDTH 20 0
BBX 20 20 0 -10
BITMAP
000000
000000
000000
000000
000000
03c000
042000
083f80
080040
7ffc40
400440
200240
200240
100140
100140
0800c0
0fffc0
000000
000000
000000
ENDCHAR
STARTCHAR <unknown>
ENCODING 222
SWIDTH 42 0
DWIDTH 20 0
BBX 20 20 0 -10
BITMAP
000000
000000
000000
000000
000000
078000
084000
1fff00
100080
100080
100080
100080
100080
100080
100080
100080
1fff80
000000
000000
000000
ENDCHAR
STARTCHAR <unknown>
ENCODING 223
SWIDTH 42 0
DWIDTH 20 0
BBX 20 20 0 -10
BITMAP
000000
000000
0aa800
000400
080a00
000500
080000
000100
080000
000100
080000
000100
080000
000100
080000
000100
0aaa00
000000
000000
000000
ENDCHAR
STARTCHAR <unknown>
ENCODING 224
SWIDTH 42 0
DWIDTH 20 0
BBX 20 20 0 -10
BITMAP
000000
000000
0ff800
080c00
080a00
080f00
080100
080100
080100
080100
080100
080100
080100
080100
080100
080100
0fff00
000000
000000
000000
ENDCHAR
STARTCHAR <unknown>
ENCODING 228
SWIDTH 42 0
DWIDTH 20 0
BBX 20 20 0 -10
BITMAP
000000
000000
0aa800
000400
08ca00
004500
0ab000
035100
088000
00d900
080800
005700
086a00
001100
081800
000100
0aaa00
000000
000000
000000
ENDCHAR
STARTCHAR <unknown>
ENCODING 229
SWIDTH 42 0
DWIDTH 20 0
BBX 20 20 0 -10
BITMAP
000000
000000
0ff800
080c00
08ca00
08cf00
0bf100
0bf100
08c100
08d900
081900
087f00
087f00
081900
081900
080100
0fff00
000000
000000
000000
ENDCHAR
STARTCHAR <unknown>
ENCODING 230
SWIDTH 42 0
DWIDTH 20 0
BBX 20 20 0 -10
BITMAP
000000
000000
0aa800
000400
080a00
000500
08a800
015500
0a8800
010100
0a8000
010100
0a8800
015500
08a800
000100
0aaa00
000000
000000
000000
ENDCHAR
STARTCHAR <unknown>
ENCODING 231
SWIDTH 42 0
DWIDTH 20 0
BBX 20 20 0 -10
BITMAP
000000
000000
0ff800
080c00
080a00
080f00
08f900
09fd00
0bc900
0b8100
0b8100
0b8100
0bc900
09fd00
08f900
080100
0fff00
000000
000000
000000
ENDCHAR
STARTCHAR <unknown>
ENCODING 236
SWIDTH 42 0
DWIDTH 20 0
BBX 20 20 0 -10
BITMAP
000000
000000
0aa800
000400
080a00
014500
080000
005100
080000
005100
080000
014100
080000
005100
080000
000100
0aaa00
000000
000000
000000
ENDCHAR
STARTCHAR <unknown>
ENCODING 237
SWIDTH 42 0
DWIDTH 20 0
BBX 20 20 0 -10
BITMAP
000000
000000
0ff800
080c00
080a00
09cf00
080100
087900
080100
087900
080100
09e100
080100
087900
080100
080100
0fff00
000000
000000
000000
ENDCHAR
STARTCHAR <unknown>
ENCODING 238
SWIDTH 42 0
DWIDTH 20 0
BBX 20 20 0 -10
BITMAP
000000
000000
0aa800
000400
080a00
000500
095000
00a900
090000
008100
095000
00a100
090000
008100
090000
000100
0aaa00
000000
000000
000000
ENDCHAR
STARTCHAR <unknown>
ENCODING 239
SWIDTH 42 0
DWIDTH 20 0
BBX 20 20 0 -10
BITMAP
000000
000000
0ff800
080c00
080a00
080f00
09f900
09f900
098100
098100
09f100
09f100
098100
098100
098100
080100
0fff00
000000
000000
000000
ENDCHAR
STARTCHAR <unknown>
ENCODING 242
SWIDTH 42 0
DWIDTH 20 0
BBX 20 20 0 -10
BITMAP
000000
000000
0aa800
000400
080a00
000500
080000
020500
090800
029500
096800
022500
090800
020500
090800
000100
0aaa00
000000
000000
000000
ENDCHAR
STARTCHAR <unknown>
ENCODING 243
SWIDTH 42 0
DWIDTH 20 0
BBX 20 20 0 -10
BITMAP
000000
000000
07fc00
040600
040500
040780
040080
058680
05ce80
05fe80
05fe80
05b680
058680
058680
058680
040080
07ff80
000000
000000
000000
ENDCHAR
STARTCHAR <unknown>
ENCODING 209
SWIDTH 42 0
DWIDTH 20 0
BBX 20 20 0 -10
BITMAP
000080
1e01c0
1203e0
1205f0
1c0ce0
121240
122580
004900
009200
012400
024800
069000
072000
0fc000
0f8000
0e0000
000000
000000
000000
000000
ENDCHAR
STARTCHAR <unknown>
ENCODING 210
SWIDTH 42 0
DWIDTH 20 0
BBX 20 20 0 -10
BITMAP
000080
1e01c0
1203e0
1205f0
1c0ce0
121240
122580
004900
009200
012400
024800
069000
072000
0fca80
0f8700
0e0f80
000700
000a80
000000
000000
ENDCHAR
STARTCHAR <unknown>
ENCODING 211
SWIDTH 42 0
DWIDTH 20 0
BBX 20 20 0 -10
BITMAP
000080
1101c0
1103e0
1505f0
1b0ce0
111240
002580
004900
009200
012400
024800
069000
072000
0fc000
0f8000
0e0000
000000
000000
000000
000000
ENDCHAR
STARTCHAR <unknown>
ENCODING 212
SWIDTH 42 0
DWIDTH 20 0
BBX 20 20 0 -10
BITMAP
000080
1101c0
1103e0
1505f0
1b0ce0
111240
002580
004900
009200
012400
024800
069000
072000
0fca80
0f8700
0e0f80
000700
000a80
000000
000000
ENDCHAR
STARTCHAR <unknown>
ENCODING 213
SWIDTH 42 0
DWIDTH 20 0
BBX 20 20 0 -10
BITMAP
000080
1e01c0
1203e0
1205f0
1c0ce0
121240
122580
004900
009200
012400
024800
069000
072000
cfc000
8f8000
8e0000
800000
780000
040000
040000
ENDCHAR
STARTCHAR <unknown>
ENCODING 214
SWIDTH 42 0
DWIDTH 20 0
BBX 20 20 0 -10
BITMAP
000080
1e01c0
1203e0
1205f0
1c0ce0
121240
122580
004900
009200
012400
024800
069000
072000
cfca80
8f8700
8e0f80
800700
780a80
040000
040000
ENDCHAR
STARTCHAR <unknown>
ENCODING 215
SWIDTH 42 0
DWIDTH 20 0
BBX 20 20 0 -10
BITMAP
000080
1101c0
1103e0
1505f0
1b0ce0
111240
002580
004900
009200
012400
024800
069000
072000
cfc000
8f8000
8e0000
800000
780000
040000
040000
ENDCHAR
STARTCHAR <unknown>
ENCODING 216
SWIDTH 42 0
DWIDTH 20 0
BBX 20 20 0 -10
BITMAP
000080
1101c0
1103e0
1505f0
1b0ce0
111240
002580
004900
009200
012400
024800
069000
072000
cfca80
8f8700
8e0f80
800700
780a80
040000
040000
ENDCHAR
STARTCHAR <unknown>
ENCODING 217
SWIDTH 42 0
DWIDTH 20 0
BBX 20 20 0 -10
BITMAP
000080
0001c0
0003e0
0005f0
000ce0
001240
002580
004900
009200
012400
024800
069000
072000
0fc000
0f8000
0e0000
000000
000000
000000
000000
ENDCHAR
STARTCHAR <unknown>
ENCODING 218
SWIDTH 42 0
DWIDTH 20 0
BBX 20 20 0 -10
BITMAP
000080
0001c0
0003e0
0005f0
000ce0
001240
002580
004900
009200
012400
024800
069000
072000
0fca80
0f8700
0e0f80
000700
000a80
000000
000000
ENDCHAR
STARTCHAR <unknown>
ENCODING 219
SWIDTH 42 0
DWIDTH 20 0
BBX 20 20 0 -10
BITMAP
000080
0001c0
0003e0
0005f0
000ce0
001240
002580
004900
009200
012400
024800
069000
072000
cfc000
8f8000
8e0000
800000
780000
040000
040000
ENDCHAR
STARTCHAR <unknown>
ENCODING 220
SWIDTH 42 0
DWIDTH 20 0
BBX 20 20 0 -10
BITMAP
000080
0001c0
0003e0
0005f0
000ce0
001240
002580
004900
009200
012400
024800
069000
072000
cfca80
8f8700
8e0f80
800700
780a80
040000
040000
ENDCHAR
STARTCHAR <unknown>
ENCODING 240
SWIDTH 42 0
DWIDTH 20 0
BBX 20 20 0 -10
BITMAP
000000
000000
000000
000000
000000
000000
000e00
001100
182080
1fe080
182080
001100
000e00
000000
000000
000000
000000
000000
000000
000000
ENDCHAR
STARTCHAR <unknown>
ENCODING 244
SWIDTH 42 0
DWIDTH 20 0
BBX 20 20 0 -10
BITMAP
000000
000000
000000
007f00
008880
011180
03fe80
044680
088a80
1ff280
111280
111300
111200
111400
111800
111000
0fe000
000000
000000
000000
ENDCHAR
STARTCHAR <unknown>
ENCODING 246
SWIDTH 42 0
DWIDTH 20 0
BBX 19 19 0 -9
BITMAP
d55500
800180
3c0140
a001e0
3c0000
840020
3c0000
81e020
012000
812020
016000
81e020
001400
800420
000400
800420
000780
800020
d55560
ENDCHAR
STARTCHAR <unknown>
ENCODING 247
SWIDTH 42 0
DWIDTH 20 0
BBX 19 19 0 -9
BITMAP
ffff00
800180
bc0140
a001e0
bc0020
840020
bc0020
81e020
812020
812020
816020
81e020
801420
800420
800420
800420
8007a0
800020
ffffe0
ENDCHAR
STARTCHAR <unknown>
ENCODING 32
SWIDTH 42 0
DWIDTH 4 0
BBX 1 1 7 -13
BITMAP
00
ENDCHAR
STARTCHAR <unknown>
ENCODING 33
SWIDTH 42 0
DWIDTH 4 0
BBX 2 9 1 -6
BITMAP
c0
c0
c0
c0
c0
c0
00
c0
c0
ENDCHAR
STARTCHAR <unknown>
ENCODING 34
SWIDTH 42 0
DWIDTH 5 0
BBX 3 3 1 0
BITMAP
a0
a0
a0
ENDCHAR
STARTCHAR <unknown>
ENCODING 35
SWIDTH 42 0
DWIDTH 8 0
BBX 7 8 0 -6
BITMAP
14
14
7e
28
28
fc
50
50
ENDCHAR
STARTCHAR <unknown>
ENCODING 36
SWIDTH 42 0
DWIDTH 7 0
BBX 6 11 0 -8
BITMAP
10
78
d4
d0
78
1c
94
d4
78
10
10
ENDCHAR
STARTCHAR <unknown>
ENCODING 37
SWIDTH 42 0
DWIDTH 12 0
BBX 11 9 0 -6
BITMAP
7100
db00
da00
7400
0400
09c0
0b60
1b60
11c0
ENDCHAR
STARTCHAR <unknown>
ENCODING 38
SWIDTH 42 0
DWIDTH 9 0
BBX 9 9 0 -6
BITMAP
3800
6c00
6c00
3800
7900
cf00
c600
cf00
7980
ENDCHAR
STARTCHAR <unknown>
ENCODING 39
SWIDTH 42 0
DWIDTH 4 0
BBX 2 3 1 0
BITMAP
c0
40
80
ENDCHAR
STARTCHAR <unknown>
ENCODING 40
SWIDTH 42 0
DWIDTH 6 0
BBX 4 12 1 -9
BITMAP
30
60
60
c0
c0
c0
c0
c0
c0
60
60
30
ENDCHAR
STARTCHAR <unknown>
ENCODING 41
SWIDTH 42 0
DWIDTH 6 0
BBX 4 12 1 -9
BITMAP
c0
60
60
30
30
30
30
30
30
60
60
c0
ENDCHAR
STARTCHAR <unknown>
ENCODING 42
SWIDTH 42 0
DWIDTH 6 0
BBX 5 4 0 -1
BITMAP
20
f8
70
50
ENDCHAR
STARTCHAR <unknown>
ENCODING 43
SWIDTH 42 0
DWIDTH 7 0
BBX 6 5 0 -5
BITMAP
30
30
fc
30
30
ENDCHAR
STARTCHAR <unknown>
ENCODING 44
SWIDTH 42 0
DWIDTH 4 0
BBX 2 4 1 -8
BITMAP
c0
c0
40
80
ENDCHAR
STARTCHAR <unknown>
ENCODING 45
SWIDTH 42 0
DWIDTH 5 0
BBX 4 1 0 -3
BITMAP
f0
ENDCHAR
STARTCHAR <unknown>
ENCODING 46
SWIDTH 42 0
DWIDTH 4 0
BBX 2 2 1 -6
BITMAP
c0
c0
ENDCHAR
STARTCHAR <unknown>
ENCODING 47
SWIDTH 42 0
DWIDTH 4 0
BBX 4 9 0 -6
BITMAP
30
30
20
60
60
40
40
c0
c0
ENDCHAR
STARTCHAR <unknown>
ENCODING 48
SWIDTH 42 0
DWIDTH 7 0
BBX 6 9 0 -6
BITMAP
78
cc
cc
cc
cc
cc
cc
cc
78
ENDCHAR
STARTCHAR <unknown>
ENCODING 49
SWIDTH 42 0
DWIDTH 7 0
BBX 4 9 0 -6
BITMAP
30
f0
30
30
30
30
30
30
30
ENDCHAR
STARTCHAR <unknown>
ENCODING 50
SWIDTH 42 0
DWIDTH 7 0
BBX 6 9 0 -6
BITMAP
78
cc
0c
18
30
60
c0
c0
fc
ENDCHAR
STARTCHAR <unknown>
ENCODING 51
SWIDTH 42 0
DWIDTH 7 0
BBX 6 9 0 -6
BITMAP
78
cc
0c
38
0c
0c
0c
cc
78
ENDCHAR
STARTCHAR <unknown>
ENCODING 52
SWIDTH 42 0
DWIDTH 7 0
BBX 7 9 0 -6
BITMAP
0c
1c
2c
2c
4c
8c
fe
0c
0c
ENDCHAR
STARTCHAR <unknown>
ENCODING 53
SWIDTH 42 0
DWIDTH 7 0
BBX 6 9 0 -6
BITMAP
7c
60
c0
f8
0c
0c
cc
cc
78
ENDCHAR
STARTCHAR <unknown>
ENCODING 54
SWIDTH 42 0
DWIDTH 7 0
BBX 6 9 0 -6
BITMAP
78
cc
c0
c0
f8
cc
cc
cc
78
ENDCHAR
STARTCHAR <unknown>
ENCODING 55
SWIDTH 42 0
DWIDTH 7 0
BBX 6 9 0 -6
BITMAP
fc
0c
18
18
30
30
30
60
60
ENDCHAR
STARTCHAR <unknown>
ENCODING 56
SWIDTH 42 0
DWIDTH 7 0
BBX 6 9 0 -6
BITMAP
78
cc
cc
78
cc
cc
cc
cc
78
ENDCHAR
STARTCHAR <unknown>
ENCODING 57
SWIDTH 42 0
DWIDTH 7 0
BBX 6 9 0 -6
BITMAP
78
cc
cc
cc
7c
0c
0c
cc
78
ENDCHAR
STARTCHAR <unknown>
ENCODING 58
SWIDTH 42 0
DWIDTH 4 0
BBX 2 7 1 -6
BITMAP
c0
c0
00
00
00
c0
c0
ENDCHAR
STARTCHAR <unknown>
ENCODING 59
SWIDTH 42 0
DWIDTH 4 0
BBX 2 9 1 -8
BITMAP
c0
c0
00
00
00
c0
c0
40
80
ENDCHAR
STARTCHAR <unknown>
ENCODING 60
SWIDTH 42 0
DWIDTH 7 0
BBX 5 5 1 -5
BITMAP
18
70
c0
70
18
ENDCHAR
STARTCHAR <unknown>
ENCODING 61
SWIDTH 42 0
DWIDTH 7 0
BBX 6 3 0 -4
BITMAP
fc
00
fc
ENDCHAR
STARTCHAR <unknown>
ENCODING 62
SWIDTH 42 0
DWIDTH 7 0
BBX 5 5 1 -5
BITMAP
c0
70
18
70
c0
ENDCHAR
STARTCHAR <unknown>
ENCODING 63
SWIDTH 42 0
DWIDTH 8 0
BBX 6 9 1 -6
BITMAP
78
cc
cc
18
30
30
00
30
30
ENDCHAR
STARTCHAR <unknown>
ENCODING 64
SWIDTH 42 0
DWIDTH 12 0
BBX 10 10 1 -7
BITMAP
1f00
6080
4040
8d40
9240
a240
a680
9b00
4000
3e00
ENDCHAR
STARTCHAR <unknown>
ENCODING 65
SWIDTH 42 0
DWIDTH 8 0
BBX 8 10 0 -6
BITMAP
18
18
3c
24
66
66
7e
c3
c3
c3
ENDCHAR
STARTCHAR <unknown>
ENCODING 66
SWIDTH 42 0
DWIDTH 9 0
BBX 7 9 1 -6
BITMAP
fc
c6
c6
c6
fc
c6
c6
c6
fc
ENDCHAR
STARTCHAR <unknown>
ENCODING 67
SWIDTH 42 0
DWIDTH 8 0
BBX 7 9 1 -6
BITMAP
3c
66
c0
c0
c0
c0
c0
66
3c
ENDCHAR
STARTCHAR <unknown>
ENCODING 68
SWIDTH 42 0
DWIDTH 9 0
BBX 7 9 1 -6
BITMAP
f8
cc
c6
c6
c6
c6
c6
cc
f8
ENDCHAR
STARTCHAR <unknown>
ENCODING 69
SWIDTH 42 0
DWIDTH 8 0
BBX 6 9 1 -6
BITMAP
fc
c0
c0
c0
fc
c0
c0
c0
fc
ENDCHAR
STARTCHAR <unknown>
ENCODING 70
SWIDTH 42 0
DWIDTH 7 0
BBX 6 9 1 -6
BITMAP
fc
c0
c0
c0
f8
c0
c0
c0
c0
ENDCHAR
STARTCHAR <unknown>
ENCODING 71
SWIDTH 42 0
DWIDTH 10 0
BBX 8 9 1 -6
BITMAP
3e
63
c0
c0
cf
c3
c3
63
3d
ENDCHAR
STARTCHAR <unknown>
ENCODING 72
SWIDTH 42 0
DWIDTH 9 0
BBX 7 9 1 -6
BITMAP
c6
c6
c6
c6
fe
c6
c6
c6
c6
ENDCHAR
STARTCHAR <unknown>
ENCODING 73
SWIDTH 42 0
DWIDTH 4 0
BBX 2 9 1 -6
BITMAP
c0
c0
c0
c0
c0
c0
c0
c0
c0
ENDCHAR
STARTCHAR <unknown>
ENCODING 74
SWIDTH 42 0
DWIDTH 7 0
BBX 6 9 0 -6
BITMAP
0c
0c
0c
0c
0c
0c
cc
cc
78
ENDCHAR
STARTCHAR <unknown>
ENCODING 75
SWIDTH 42 0
DWIDTH 9 0
BBX 8 9 1 -6
BITMAP
c6
cc
d8
f0
f0
d8
cc
c6
c3
ENDCHAR
STARTCHAR <unknown>
ENCODING 76
SWIDTH 42 0
DWIDTH 7 0
BBX 6 9 1 -6
BITMAP
c0
c0
c0
c0
c0
c0
c0
c0
fc
ENDCHAR
STARTCHAR <unknown>
ENCODING 77
SWIDTH 42 0
DWIDTH 11 0
BBX 9 9 1 -6
BITMAP
c180
c180
e380
e380
f780
d580
dd80
c980
c980
ENDCHAR
STARTCHAR <unknown>
ENCODING 78
SWIDTH 42 0
DWIDTH 9 0
BBX 7 9 1 -6
BITMAP
c6
e6
e6
d6
d6
ce
ce
c6
c6
ENDCHAR
STARTCHAR <unknown>
ENCODING 79
SWIDTH 42 0
DWIDTH 10 0
BBX 8 9 1 -6
BITMAP
3c
66
c3
c3
c3
c3
c3
66
3c
ENDCHAR
STARTCHAR <unknown>
ENCODING 80
SWIDTH 42 0
DWIDTH 8 0
BBX 7 9 1 -6
BITMAP
fc
c6
c6
c6
fc
c0
c0
c0
c0
ENDCHAR
STARTCHAR <unknown>
ENCODING 81
SWIDTH 42 0
DWIDTH 10 0
BBX 8 9 1 -6
BITMAP
3c
66
c3
c3
c3
cb
cf
66
3f
ENDCHAR
STARTCHAR <unknown>
ENCODING 82
SWIDTH 42 0
DWIDTH 9 0
BBX 7 9 1 -6
BITMAP
fc
c6
c6
c6
fc
cc
c6
c6
c6
ENDCHAR
STARTCHAR <unknown>
ENCODING 83
SWIDTH 42 0
DWIDTH 9 0
BBX 7 9 1 -6
BITMAP
7c
c6
c6
70
1c
0e
c6
c6
7c
ENDCHAR
STARTCHAR <unknown>
ENCODING 84
SWIDTH 42 0
DWIDTH 8 0
BBX 8 9 0 -6
BITMAP
ff
18
18
18
18
18
18
18
18
ENDCHAR
STARTCHAR <unknown>
ENCODING 85
SWIDTH 42 0
DWIDTH 9 0
BBX 7 9 1 -6
BITMAP
c6
c6
c6
c6
c6
c6
c6
6c
7c
ENDCHAR
STARTCHAR <unknown>
ENCODING 86
SWIDTH 42 0
DWIDTH 8 0
BBX 8 9 0 -6
BITMAP
c3
c3
66
66
66
24
3c
18
18
ENDCHAR
STARTCHAR <unknown>
ENCODING 87
SWIDTH 42 0
DWIDTH 10 0
BBX 10 9 0 -6
BITMAP
ccc0
ccc0
ccc0
4c80
6d80
6d80
3300
3300
3300
ENDCHAR
STARTCHAR <unknown>
ENCODING 88
SWIDTH 42 0
DWIDTH 8 0
BBX 8 9 0 -6
BITMAP
c3
c3
66
3c
18
3c
66
c3
c3
ENDCHAR
STARTCHAR <unknown>
ENCODING 89
SWIDTH 42 0
DWIDTH 8 0
BBX 8 9 0 -6
BITMAP
c3
c3
66
66
3c
18
18
18
18
ENDCHAR
STARTCHAR <unknown>
ENCODING 90
SWIDTH 42 0
DWIDTH 7 0
BBX 7 9 0 -6
BITMAP
fe
06
0c
18
30
30
60
c0
fe
ENDCHAR
STARTCHAR <unknown>
ENCODING 91
SWIDTH 42 0
DWIDTH 4 0
BBX 3 12 1 -9
BITMAP
e0
c0
c0
c0
c0
c0
c0
c0
c0
c0
c0
e0
ENDCHAR
STARTCHAR <unknown>
ENCODING 92
SWIDTH 42 0
DWIDTH 4 0
BBX 4 9 0 -6
BITMAP
c0
c0
40
60
60
20
20
30
30
ENDCHAR
STARTCHAR <unknown>
ENCODING 93
SWIDTH 42 0
DWIDTH 4 0
BBX 3 12 0 -9
BITMAP
e0
60
60
60
60
60
60
60
60
60
60
e0
ENDCHAR
STARTCHAR <unknown>
ENCODING 94
SWIDTH 42 0
DWIDTH 7 0
BBX 7 4 0 -1
BITMAP
10
38
6c
c6
ENDCHAR
STARTCHAR <unknown>
ENCODING 95
SWIDTH 42 0
DWIDTH 7 0
BBX 7 1 0 -9
BITMAP
fe
ENDCHAR
STARTCHAR <unknown>
ENCODING 96
SWIDTH 42 0
DWIDTH 4 0
BBX 2 3 1 0
BITMAP
40
80
c0
ENDCHAR
STARTCHAR <unknown>
ENCODING 97
SWIDTH 42 0
DWIDTH 7 0
BBX 7 7 0 -6
BITMAP
78
cc
0c
7c
cc
cc
76
ENDCHAR
STARTCHAR <unknown>
ENCODING 98
SWIDTH 42 0
DWIDTH 7 0
BBX 6 9 0 -6
BITMAP
c0
c0
d8
ec
cc
cc
cc
ec
d8
ENDCHAR
STARTCHAR <unknown>
ENCODING 99
SWIDTH 42 0
DWIDTH 7 0
BBX 6 7 0 -6
BITMAP
78
cc
c0
c0
c0
cc
78
ENDCHAR
STARTCHAR <unknown>
ENCODING 100
SWIDTH 42 0
DWIDTH 7 0
BBX 6 9 0 -6
BITMAP
0c
0c
6c
dc
cc
cc
cc
dc
6c
ENDCHAR
STARTCHAR <unknown>
ENCODING 101
SWIDTH 42 0
DWIDTH 7 0
BBX 6 7 0 -6
BITMAP
78
cc
cc
fc
c0
cc
78
ENDCHAR
STARTCHAR <unknown>
ENCODING 102
SWIDTH 42 0
DWIDTH 5 0
BBX 5 9 0 -6
BITMAP
38
60
f0
60
60
60
60
60
60
ENDCHAR
STARTCHAR <unknown>
ENCODING 103
SWIDTH 42 0
DWIDTH 7 0
BBX 6 10 0 -9
BITMAP
6c
dc
cc
cc
cc
dc
6c
0c
cc
78
ENDCHAR
STARTCHAR <unknown>
ENCODING 104
SWIDTH 42 0
DWIDTH 7 0
BBX 6 9 0 -6
BITMAP
c0
c0
d8
ec
cc
cc
cc
cc
cc
ENDCHAR
STARTCHAR <unknown>
ENCODING 105
SWIDTH 42 0
DWIDTH 3 0
BBX 2 9 0 -6
BITMAP
c0
00
c0
c0
c0
c0
c0
c0
c0
ENDCHAR
STARTCHAR <unknown>
ENCODING 106
SWIDTH 42 0
DWIDTH 3 0
BBX 3 12 -1 -9
BITMAP
60
00
60
60
60
60
60
60
60
60
60
c0
ENDCHAR
STARTCHAR <unknown>
ENCODING 107
SWIDTH 42 0
DWIDTH 7 0
BBX 7 9 0 -6
BITMAP
c0
c0
cc
d8
f0
f0
d8
cc
c6
ENDCHAR
STARTCHAR <unknown>
ENCODING 108
SWIDTH 42 0
DWIDTH 3 0
BBX 2 9 0 -6
BITMAP
c0
c0
c0
c0
c0
c0
c0
c0
c0
ENDCHAR
STARTCHAR <unknown>
ENCODING 109
SWIDTH 42 0
DWIDTH 11 0
BBX 10 7 0 -6
BITMAP
bb80
ccc0
ccc0
ccc0
ccc0
ccc0
ccc0
ENDCHAR
STARTCHAR <unknown>
ENCODING 110
SWIDTH 42 0
DWIDTH 7 0
BBX 6 7 0 -6
BITMAP
d8
ec
cc
cc
cc
cc
cc
ENDCHAR
STARTCHAR <unknown>
ENCODING 111
SWIDTH 42 0
DWIDTH 7 0
BBX 6 7 0 -6
BITMAP
78
cc
cc
cc
cc
cc
78
ENDCHAR
STARTCHAR <unknown>
ENCODING 112
SWIDTH 42 0
DWIDTH 7 0
BBX 6 10 0 -9
BITMAP
d8
ec
cc
cc
cc
ec
d8
c0
c0
c0
ENDCHAR
STARTCHAR <unknown>
ENCODING 113
SWIDTH 42 0
DWIDTH 7 0
BBX 6 10 0 -9
BITMAP
74
dc
cc
cc
cc
dc
6c
0c
0c
0c
ENDCHAR
STARTCHAR <unknown>
ENCODING 114
SWIDTH 42 0
DWIDTH 5 0
BBX 5 7 0 -6
BITMAP
d8
f8
e0
c0
c0
c0
c0
ENDCHAR
STARTCHAR <unknown>
ENCODING 115
SWIDTH 42 0
DWIDTH 7 0
BBX 6 7 0 -6
BITMAP
78
cc
e0
38
1c
cc
78
ENDCHAR
STARTCHAR <unknown>
ENCODING 116
SWIDTH 42 0
DWIDTH 5 0
BBX 5 9 0 -6
BITMAP
60
60
f0
60
60
60
60
68
30
ENDCHAR
STARTCHAR <unknown>
ENCODING 117
SWIDTH 42 0
DWIDTH 7 0
BBX 6 7 0 -6
BITMAP
cc
cc
cc
cc
cc
dc
6c
ENDCHAR
STARTCHAR <unknown>
ENCODING 118
SWIDTH 42 0
DWIDTH 8 0
BBX 7 7 0 -6
BITMAP
c6
c6
6c
6c
38
38
10
ENDCHAR
STARTCHAR <unknown>
ENCODING 119
SWIDTH 42 0
DWIDTH 11 0
BBX 10 7 0 -6
BITMAP
ccc0
ccc0
6d80
6d80
6d80
3300
3300
ENDCHAR
STARTCHAR <unknown>
ENCODING 120
SWIDTH 42 0
DWIDTH 7 0
BBX 6 7 0 -6
BITMAP
cc
cc
78
30
78
cc
cc
ENDCHAR
STARTCHAR <unknown>
ENCODING 121
SWIDTH 42 0
DWIDTH 8 0
BBX 7 10 0 -9
BITMAP
c6
c6
6c
6c
38
38
18
10
30
60
ENDCHAR
STARTCHAR <unknown>
ENCODING 122
SWIDTH 42 0
DWIDTH 6 0
BBX 5 7 0 -6
BITMAP
f8
18
30
20
60
c0
f8
ENDCHAR
STARTCHAR <unknown>
ENCODING 123
SWIDTH 42 0
DWIDTH 5 0
BBX 4 12 0 -9
BITMAP
30
60
60
60
60
c0
60
60
60
60
60
30
ENDCHAR
STARTCHAR <unknown>
ENCODING 124
SWIDTH 42 0
DWIDTH 4 0
BBX 2 12 1 -9
BITMAP
c0
c0
c0
c0
c0
c0
c0
c0
c0
c0
c0
c0
ENDCHAR
STARTCHAR <unknown>
ENCODING 125
SWIDTH 42 0
DWIDTH 5 0
BBX 4 12 0 -9
BITMAP
c0
60
60
60
60
30
60
60
60
60
60
c0
ENDCHAR
STARTCHAR <unknown>
ENCODING 126
SWIDTH 42 0
DWIDTH 7 0
BBX 7 2 0 -3
BITMAP
76
dc
ENDCHAR
STARTCHAR <unknown>
ENCODING 128
SWIDTH 42 0
DWIDTH 20 0
BBX 20 20 0 -10
BITMAP
000000
000000
0ff800
080800
041000
022000
0ff800
080800
0809c0
09c900
090900
09cf00
090800
090800
080800
080800
0ff800
000000
000000
000000
ENDCHAR
STARTCHAR <unknown>
ENCODING 129
SWIDTH 42 0
DWIDTH 20 0
BBX 20 20 0 -10
BITMAP
000000
000000
000000
006000
009000
009000
00f000
010800
020400
040200
080100
3fffc0
080100
08f100
089100
089100
0fff00
000000
000000
000000
ENDCHAR
STARTCHAR <unknown>
ENCODING 130
SWIDTH 42 0
DWIDTH 20 0
BBX 20 20 0 -10
BITMAP
000000
000000
000000
000000
000000
000000
000000
031800
07a800
09a000
01c000
00c000
00e000
016000
017400
053800
063000
000000
000000
000000
ENDCHAR
STARTCHAR <unknown>
ENCODING 131
SWIDTH 42 0
DWIDTH 20 0
BBX 20 20 0 -10
BITMAP
fffff0
800010
9c0710
b60d90
b6eb90
be0e90
b6ed90
b60710
800010
800010
bc0310
b60710
bce310
b60310
b6e310
bc0310
800010
800010
800010
fffff0
ENDCHAR
STARTCHAR <unknown>
ENCODING 132
SWIDTH 42 0
DWIDTH 20 0
BBX 20 20 0 -10
BITMAP
000000
000000
040000
060000
070000
078000
07c000
07e000
07f000
07f800
07f000
07e000
07c000
078000
070000
060000
040000
000000
000000
000000
ENDCHAR
STARTCHAR <unknown>
ENCODING 133
SWIDTH 42 0
DWIDTH 20 0
BBX 20 20 0 -10
BITMAP
000000
000000
000000
000000
00e000
011000
020800
020800
020800
071c00
08e200
104100
104100
104100
08a200
071c00
000000
000000
000000
000000
ENDCHAR
STARTCHAR <unknown>
ENCODING 134
SWIDTH 42 0
DWIDTH 20 0
BBX 20 20 0 -10
BITMAP
000000
000000
000000
031800
031800
031800
1fff00
1fff00
031800
031800
031800
1fff00
1fff00
031800
031800
031800
000000
000000
000000
000000
ENDCHAR
STARTCHAR <unknown>
ENCODING 135
SWIDTH 42 0
DWIDTH 20 0
BBX 20 20 0 -10
BITMAP
000000
000000
000000
0c0600
0c0600
0c0600
0c0600
0c0600
0c0600
0c0600
0c0600
0c0600
0c0600
0e0e00
07fc00
03f800
000000
000000
000000
000000
ENDCHAR
STARTCHAR <unknown>
ENCODING 136
SWIDTH 42 0
DWIDTH 20 0
BBX 20 20 0 -10
BITMAP
000000
000000
000000
000000
000000
000000
000000
380e00
6c1b00
6dd700
7c1d00
6ddb00
6c0e00
000000
000000
000000
000000
000000
000000
000000
ENDCHAR
STARTCHAR <unknown>
ENCODING 137
SWIDTH 42 0
DWIDTH 20 0
BBX 20 20 0 -10
BITMAP
000000
000000
000000
000000
000000
03fc00
07fa00
0ff600
000e00
1fee00
1fee00
1fee00
1fee00
1fee00
1fec00
1fe800
1fe000
000000
000000
000000
ENDCHAR
STARTCHAR <unknown>
ENCODING 138
SWIDTH 42 0
DWIDTH 20 0
BBX 20 20 0 -12
BITMAP
000000
000000
020800
011000
011000
00e000
00e000
1eef00
21f080
2eee80
21f080
1eef00
00e000
004000
000000
000000
000000
000000
000000
000000
ENDCHAR
STARTCHAR <unknown>
ENCODING 139
SWIDTH 42 0
DWIDTH 20 0
BBX 20 20 0 -10
BITMAP
000000
000000
000000
000000
000000
000000
000000
018c00
03d400
04d000
00e000
006000
007000
70b000
70ba00
729c00
031800
000000
000000
000000
ENDCHAR
STARTCHAR <unknown>
ENCODING 140
SWIDTH 42 0
DWIDTH 20 0
BBX 20 20 0 -10
BITMAP
000000
000000
000000
000000
03fc00
040c00
081400
1fe400
102400
102400
102400
102400
102400
102400
102800
103000
1fe000
000000
000000
000000
ENDCHAR
STARTCHAR <unknown>
ENCODING 141
SWIDTH 42 0
DWIDTH 20 0
BBX 20 20 0 -10
BITMAP
000000
000000
0fff00
080100
080100
09f900
080100
09f900
080100
09f900
080100
09f900
080100
09f900
080100
080100
0fff00
000000
000000
000000
ENDCHAR
STARTCHAR <unknown>
ENCODING 142
SWIDTH 42 0
DWIDTH 20 0
BBX 20 20 0 -10
BITMAP
000000
000000
000000
000000
03fc00
040c00
0ff400
081400
0bd400
081400
0bd400
081400
0bd400
081400
0bd400
081800
0ff000
000000
000000
000000
ENDCHAR
STARTCHAR C143
ENCODING 143
SWIDTH 42 0
DWIDTH 20 0
BBX 19 19 0 -9
BITMAP
ffffe0
800020
be0020
a00020
ae0020
a20020
be0020
81e020
811020
81e020
812020
811020
800f20
8008a0
800f20
800820
800820
800020
ffffe0
ENDCHAR
STARTCHAR C143
ENCODING 144
SWIDTH 42 0
DWIDTH 20 0
BBX 19 19 0 -9
BITMAP
ffffe0
800020
bdef20
a10920
bd0f20
850a20
bde920
800020
800020
800020
800020
800020
bdef20
a12920
adef20
a54820
bd2820
800020
ffffe0
ENDCHAR
STARTCHAR <unknown>
ENCODING 145
SWIDTH 42 0
DWIDTH 20 0
BBX 20 20 0 -10
BITMAP
000000
000000
000000
000000
000000
042000
081000
1ff800
200400
400200
200400
1ff800
081000
042000
000000
000000
000000
000000
000000
000000
ENDCHAR
STARTCHAR <unknown>
ENCODING 146
SWIDTH 42 0
DWIDTH 20 0
BBX 20 20 0 -10
BITMAP
000000
000000
000000
000000
000000
000000
0e0000
110400
208800
007000
0e0000
110400
208800
007000
000000
000000
000000
000000
000000
000000
ENDCHAR
STARTCHAR <unknown>
ENCODING 147
SWIDTH 42 0
DWIDTH 20 0
BBX 20 20 0 -10
BITMAP
000000
000000
03e000
0c1800
120400
254200
408100
420100
854080
808080
800080
808080
815080
402100
408100
215200
102400
0c1800
03e000
000000
ENDCHAR
STARTCHAR <unknown>
ENCODING 148
SWIDTH 42 0
DWIDTH 20 0
BBX 20 20 0 -10
BITMAP
000000
000000
000000
000000
000000
040400
08e200
1d1700
201080
402040
204080
1f1f00
084200
040400
000000
000000
000000
000000
000000
000000
ENDCHAR
STARTCHAR <unknown>
ENCODING 149
SWIDTH 42 0
DWIDTH 20 0
BBX 20 20 0 -12
BITMAP
ffff00
800100
80c100
80c100
800100
838100
818100
818100
818100
830100
830100
834100
838100
800100
800100
ffff00
000000
000000
000000
000000
ENDCHAR
STARTCHAR C143
ENCODING 150
SWIDTH 42 0
DWIDTH 20 0
BBX 19 19 0 -9
BITMAP
ffffe0
800020
be0120
a00020
be0020
820020
be0020
800020
81f020
804020
804020
804020
804fa0
8008a0
800fa0
800920
8008a0
800020
ffffe0
ENDCHAR
STARTCHAR C151
ENCODING 151
SWIDTH 42 0
DWIDTH 20 0
BBX 16 14 0 -8
BITMAP
2004
4002
4632
4f52
5342
4382
8181
41c2
42c2
42ea
4a72
4c62
4002
2004
ENDCHAR
STARTCHAR <unknown>
ENCODING 152
SWIDTH 42 0
DWIDTH 20 0
BBX 19 19 0 -12
BITMAP
100000
107000
388800
388800
7c8800
fe7000
fe0000
000000
07f000
055000
06b000
055000
07f000
000000
000000
000000
000000
000000
000000
ENDCHAR
STARTCHAR <unknown>
ENCODING 153
SWIDTH 42 0
DWIDTH 20 0
BBX 19 19 0 -9
BITMAP
ff0000
818000
818000
81fe00
81cb00
81a700
819300
81dfc0
81bfe0
819fe0
ffdfe0
7fbfe0
149fe0
125fe0
192fe0
149300
124b00
1fff00
0fff00
ENDCHAR
STARTCHAR C143
ENCODING 154
SWIDTH 42 0
DWIDTH 20 0
BBX 19 19 0 -9
BITMAP
d55500
800180
000140
8001e0
3de400
a12420
3d2400
856420
3de780
801020
000000
800020
1e0000
904420
10ee00
904420
1e0000
800020
d55560
ENDCHAR
STARTCHAR C143
ENCODING 155
SWIDTH 42 0
DWIDTH 20 0
BBX 19 19 0 -9
BITMAP
ffff00
800180
800140
8001e0
bde420
a12420
bd2420
856420
bde7a0
801020
800020
800020
9e0020
904420
90ee20
904420
9e0020
800020
ffffe0
ENDCHAR
STARTCHAR C143
ENCODING 156
SWIDTH 42 0
DWIDTH 20 0
BBX 19 19 0 -9
BITMAP
d55500
800180
000140
8001e0
3de400
a12420
3d2400
856420
3de780
801020
000000
800020
01f000
810020
010000
810020
01f000
800020
d55560
ENDCHAR
STARTCHAR C143
ENCODING 157
SWIDTH 42 0
DWIDTH 20 0
BBX 19 19 0 -9
BITMAP
ffff00
800180
800140
8001e0
bde420
a12420
bd2420
856420
bde7a0
801020
800020
800020
81f020
810020
810020
810020
81f020
800020
ffffe0
ENDCHAR
STARTCHAR <unknown>
ENCODING 158
SWIDTH 42 0
DWIDTH 20 0
BBX 20 20 0 -10
BITMAP
000000
000000
0aa800
000400
080a00
000500
081000
000900
081000
000900
081000
020900
091000
02a900
095000
000100
0aaa00
000000
000000
000000
ENDCHAR
STARTCHAR <unknown>
ENCODING 159
SWIDTH 42 0
DWIDTH 20 0
BBX 20 20 0 -10
BITMAP
000000
000000
0ff800
080c00
080a00
080f00
081900
081900
081900
081900
081900
0b1900
0b1900
0bf900
09f100
080100
0fff00
000000
000000
000000
ENDCHAR
STARTCHAR <unknown>
ENCODING 161
SWIDTH 42 0
DWIDTH 4 0
BBX 2 10 1 -9
BITMAP
c0
c0
00
40
c0
c0
c0
c0
c0
c0
ENDCHAR
STARTCHAR <unknown>
ENCODING 162
SWIDTH 42 0
DWIDTH 7 0
BBX 6 9 0 -7
BITMAP
10
78
dc
90
a0
a0
ec
78
40
ENDCHAR
STARTCHAR <unknown>
ENCODING 163
SWIDTH 42 0
DWIDTH 7 0
BBX 6 9 0 -6
BITMAP
38
6c
60
60
f8
60
60
ec
d8
ENDCHAR
STARTCHAR <unknown>
ENCODING 164
SWIDTH 42 0
DWIDTH 4 0
BBX 5 8 -1 -6
BITMAP
18
18
30
30
60
60
c0
c0
ENDCHAR
STARTCHAR <unknown>
ENCODING 165
SWIDTH 42 0
DWIDTH 7 0
BBX 6 9 0 -6
BITMAP
cc
cc
48
fc
30
fc
30
30
30
ENDCHAR
STARTCHAR <unknown>
ENCODING 166
SWIDTH 42 0
DWIDTH 7 0
BBX 7 11 0 -9
BITMAP
0e
18
18
7c
30
30
30
30
30
e0
c0
ENDCHAR
STARTCHAR <unknown>
ENCODING 167
SWIDTH 42 0
DWIDTH 7 0
BBX 6 12 0 -9
BITMAP
78
cc
e0
70
d8
cc
cc
6c
38
1c
cc
78
ENDCHAR
STARTCHAR <unknown>
ENCODING 168
SWIDTH 42 0
DWIDTH 7 0
BBX 6 6 0 -5
BITMAP
cc
78
48
48
78
cc
ENDCHAR
STARTCHAR <unknown>
ENCODING 169
SWIDTH 42 0
DWIDTH 3 0
BBX 1 3 1 0
BITMAP
80
80
80
ENDCHAR
STARTCHAR <unknown>
ENCODING 170
SWIDTH 42 0
DWIDTH 7 0
BBX 5 3 1 0
BITMAP
48
90
d8
ENDCHAR
STARTCHAR <unknown>
ENCODING 171
SWIDTH 42 0
DWIDTH 8 0
BBX 6 5 1 -5
BITMAP
24
6c
d8
6c
24
ENDCHAR
STARTCHAR <unknown>
ENCODING 172
SWIDTH 42 0
DWIDTH 5 0
BBX 3 5 1 -5
BITMAP
20
60
c0
60
20
ENDCHAR
STARTCHAR <unknown>
ENCODING 173
SWIDTH 42 0
DWIDTH 5 0
BBX 3 5 1 -5
BITMAP
80
c0
60
c0
80
ENDCHAR
STARTCHAR <unknown>
ENCODING 174
SWIDTH 42 0
DWIDTH 8 0
BBX 7 9 0 -6
BITMAP
36
60
f6
66
66
66
66
66
66
ENDCHAR
STARTCHAR <unknown>
ENCODING 175
SWIDTH 42 0
DWIDTH 8 0
BBX 7 9 0 -6
BITMAP
36
66
f6
66
66
66
66
66
66
ENDCHAR
STARTCHAR <unknown>
ENCODING 177
SWIDTH 42 0
DWIDTH 7 0
BBX 7 1 0 -3
BITMAP
fe
ENDCHAR
STARTCHAR <unknown>
ENCODING 178
SWIDTH 42 0
DWIDTH 7 0
BBX 6 12 0 -9
BITMAP
30
30
30
fc
30
30
30
30
30
30
30
30
ENDCHAR
STARTCHAR <unknown>
ENCODING 179
SWIDTH 42 0
DWIDTH 7 0
BBX 6 12 0 -9
BITMAP
30
30
30
fc
30
30
30
fc
30
30
30
30
ENDCHAR
STARTCHAR <unknown>
ENCODING 180
SWIDTH 42 0
DWIDTH 4 0
BBX 2 2 1 -3
BITMAP
c0
c0
ENDCHAR
STARTCHAR <unknown>
ENCODING 182
SWIDTH 42 0
DWIDTH 7 0
BBX 7 12 0 -9
BITMAP
3e
74
f4
f4
f4
74
34
14
14
14
14
14
ENDCHAR
STARTCHAR <unknown>
ENCODING 183
SWIDTH 42 0
DWIDTH 4 0
BBX 4 3 0 -4
BITMAP
60
f0
60
ENDCHAR
STARTCHAR <unknown>
ENCODING 184
SWIDTH 42 0
DWIDTH 4 0
BBX 2 3 1 -8
BITMAP
c0
40
80
ENDCHAR
STARTCHAR <unknown>
ENCODING 185
SWIDTH 42 0
DWIDTH 7 0
BBX 5 3 1 -8
BITMAP
d8
48
90
ENDCHAR
STARTCHAR <unknown>
ENCODING 186
SWIDTH 42 0
DWIDTH 7 0
BBX 5 3 1 0
BITMAP
d8
48
90
ENDCHAR
STARTCHAR <unknown>
ENCODING 187
SWIDTH 42 0
DWIDTH 8 0
BBX 6 5 1 -5
BITMAP
90
d8
6c
d8
90
ENDCHAR
STARTCHAR <unknown>
ENCODING 188
SWIDTH 42 0
DWIDTH 12 0
BBX 10 1 1 -6
BITMAP
ccc0
ENDCHAR
STARTCHAR <unknown>
ENCODING 189
SWIDTH 42 0
DWIDTH 13 0
BBX 13 8 0 -6
BITMAP
7100
db00
da00
7400
05b0
0b68
1b68
11b0
ENDCHAR
STARTCHAR <unknown>
ENCODING 191
SWIDTH 42 0
DWIDTH 8 0
BBX 6 10 1 -9
BITMAP
30
30
00
30
30
30
60
cc
cc
78
ENDCHAR
STARTCHAR <unknown>
ENCODING 193
SWIDTH 42 0
DWIDTH 4 0
BBX 3 2 0 2
BITMAP
c0
60
ENDCHAR
STARTCHAR <unknown>
ENCODING 194
SWIDTH 42 0
DWIDTH 4 0
BBX 3 2 0 2
BITMAP
60
c0
ENDCHAR
STARTCHAR <unknown>
ENCODING 195
SWIDTH 42 0
DWIDTH 5 0
BBX 5 2 0 2
BITMAP
70
d8
ENDCHAR
STARTCHAR <unknown>
ENCODING 196
SWIDTH 42 0
DWIDTH 5 0
BBX 5 2 0 2
BITMAP
68
b0
ENDCHAR
STARTCHAR <unknown>
ENCODING 197
SWIDTH 42 0
DWIDTH 4 0
BBX 4 1 0 2
BITMAP
f0
ENDCHAR
STARTCHAR <unknown>
ENCODING 198
SWIDTH 42 0
DWIDTH 5 0
BBX 5 2 0 2
BITMAP
88
70
ENDCHAR
STARTCHAR <unknown>
ENCODING 199
SWIDTH 42 0
DWIDTH 4 0
BBX 2 1 1 2
BITMAP
c0
ENDCHAR
STARTCHAR <unknown>
ENCODING 200
SWIDTH 42 0
DWIDTH 5 0
BBX 5 1 0 2
BITMAP
d8
ENDCHAR
STARTCHAR <unknown>
ENCODING 202
SWIDTH 42 0
DWIDTH 5 0
BBX 5 3 0 1
BITMAP
70
d8
70
ENDCHAR
STARTCHAR <unknown>
ENCODING 203
SWIDTH 42 0
DWIDTH 4 0
BBX 4 4 0 -9
BITMAP
60
30
30
e0
ENDCHAR
STARTCHAR <unknown>
ENCODING 205
SWIDTH 42 0
DWIDTH 5 0
BBX 5 2 1 2
BITMAP
68
b0
ENDCHAR
STARTCHAR <unknown>
ENCODING 206
SWIDTH 42 0
DWIDTH 4 0
BBX 4 4 0 -3
BITMAP
60
c0
c0
70
ENDCHAR
STARTCHAR <unknown>
ENCODING 207
SWIDTH 42 0
DWIDTH 5 0
BBX 5 2 0 2
BITMAP
d8
70
ENDCHAR
STARTCHAR <unknown>
ENCODING 208
SWIDTH 42 0
DWIDTH 12 0
BBX 12 1 0 -3
BITMAP
fff0
ENDCHAR
STARTCHAR <unknown>
ENCODING 225
SWIDTH 42 0
DWIDTH 13 0
BBX 11 9 1 -6
BITMAP
1fe0
3600
2600
6600
67e0
7e00
c600
c600
c7e0
ENDCHAR
STARTCHAR <unknown>
ENCODING 227
SWIDTH 42 0
DWIDTH 6 0
BBX 4 6 1 -3
BITMAP
e0
30
f0
b0
00
f0
ENDCHAR
STARTCHAR <unknown>
ENCODING 232
SWIDTH 42 0
DWIDTH 8 0
BBX 7 9 0 -6
BITMAP
60
60
78
70
e0
60
60
60
7e
ENDCHAR
STARTCHAR <unknown>
ENCODING 233
SWIDTH 42 0
DWIDTH 10 0
BBX 8 10 1 -7
BITMAP
3d
66
cf
cb
db
d3
f3
66
7c
80
ENDCHAR
STARTCHAR <unknown>
ENCODING 234
SWIDTH 42 0
DWIDTH 13 0
BBX 11 9 1 -6
BITMAP
3fe0
6600
c600
c600
c7e0
c600
c600
6600
3fe0
ENDCHAR
STARTCHAR <unknown>
ENCODING 235
SWIDTH 42 0
DWIDTH 6 0
BBX 4 6 1 -3
BITMAP
60
d0
d0
60
00
f0
ENDCHAR
STARTCHAR <unknown>
ENCODING 241
SWIDTH 42 0
DWIDTH 11 0
BBX 10 7 0 -6
BITMAP
7780
ccc0
0cc0
7fc0
cc00
ccc0
7780
ENDCHAR
STARTCHAR <unknown>
ENCODING 245
SWIDTH 42 0
DWIDTH 3 0
BBX 2 7 0 -6
BITMAP
c0
c0
c0
c0
c0
c0
c0
ENDCHAR
STARTCHAR <unknown>
ENCODING 248
SWIDTH 42 0
DWIDTH 3 0
BBX 4 9 -1 -6
BITMAP
60
60
70
60
e0
60
60
60
60
ENDCHAR
STARTCHAR <unknown>
ENCODING 249
SWIDTH 42 0
DWIDTH 7 0
BBX 8 7 -1 -6
BITMAP
3d
66
6e
76
66
66
bc
ENDCHAR
STARTCHAR <unknown>
ENCODING 250
SWIDTH 42 0
DWIDTH 11 0
BBX 10 7 0 -6
BITMAP
7780
ccc0
ccc0
cfc0
cc00
ccc0
7780
ENDCHAR
STARTCHAR <unknown>
ENCODING 251
SWIDTH 42 0
DWIDTH 8 0
BBX 6 9 1 -6
BITMAP
78
cc
cc
cc
d8
cc
cc
cc
d8
ENDCHAR
ENDFONT
